HIERARCHY
ROOT	Hips
{
	OFFSET	0.000	0.000	0.000
	CHANNELS	6	Xposition	Yposition	Zposition	Yrotation	Xrotation	Zrotation
	JOINT	LeftThigh
	{
		OFFSET	7.642	-0.000	-0.000
		CHANNELS	3	Yrotation	Xrotation	Zrotation
		JOINT	LeftShin
		{
			OFFSET	0.000	-40.759	0.000
			CHANNELS	3	Yrotation	Xrotation	Zrotation
			JOINT	LeftFoot
			{
				OFFSET	0.000	-40.854	-0.059
				CHANNELS	3	Yrotation	Xrotation	Zrotation
				JOINT	LeftToe
				{
					OFFSET	0.000	-12.409	5.879
					CHANNELS	3	Yrotation	Xrotation	Zrotation
					End Site
					{
						OFFSET	0.000	-7.016	1.185
					}
				}
			}
		}
	}
	JOINT	RightThigh
	{
		OFFSET	-7.642	0.000	-0.000
		CHANNELS	3	Yrotation	Xrotation	Zrotation
		JOINT	RightShin
		{
			OFFSET	-0.000	-40.759	0.000
			CHANNELS	3	Yrotation	Xrotation	Zrotation
			JOINT	RightFoot
			{
				OFFSET	-0.000	-40.854	-0.059
				CHANNELS	3	Yrotation	Xrotation	Zrotation
				JOINT	RightToe
				{
					OFFSET	-0.000	-12.409	5.879
					CHANNELS	3	Yrotation	Xrotation	Zrotation
					End Site
					{
						OFFSET	0.000	-7.016	1.185
					}
				}
			}
		}
	}
	JOINT	Spine1
	{
		OFFSET	0.000	8.005	-3.725
		CHANNELS	3	Yrotation	Xrotation	Zrotation
		JOINT	Spine2
		{
			OFFSET	0.000	-7.164	-0.000
			CHANNELS	3	Yrotation	Xrotation	Zrotation
			JOINT	Spine3
			{
				OFFSET	0.000	-7.164	0.000
				CHANNELS	3	Yrotation	Xrotation	Zrotation
				JOINT	Spine4
				{
					OFFSET	0.000	-12.097	-0.000
					CHANNELS	3	Yrotation	Xrotation	Zrotation
					JOINT	LeftShoulder
					{
						OFFSET	-6.642	-11.736	1.807
						CHANNELS	3	Yrotation	Xrotation	Zrotation
						JOINT	LeftArm
						{
							OFFSET	0.000	-12.849	-0.000
							CHANNELS	3	Yrotation	Xrotation	Zrotation
							JOINT	LeftForeArm
							{
								OFFSET	0.000	-24.625	0.000
								CHANNELS	3	Yrotation	Xrotation	Zrotation
								JOINT	LeftHand
								{
									OFFSET	-0.000	-27.116	0.000
									CHANNELS	3	Yrotation	Xrotation	Zrotation
									JOINT	LeftFinger1Metacarpal
									{
										OFFSET	2.664	-1.988	0.099
										CHANNELS	3	Yrotation	Xrotation	Zrotation
										JOINT	LeftFinger1Proximal
										{
											OFFSET	0.000	-3.769	0.000
											CHANNELS	3	Yrotation	Xrotation	Zrotation
											JOINT	LeftFinger1Distal
											{
												OFFSET	0.000	-2.861	-0.000
												CHANNELS	3	Yrotation	Xrotation	Zrotation
												End Site
												{
													OFFSET	0.000	-3.269	-0.000
												}
											}
										}
									}
									JOINT	LeftFinger2Metacarpal
									{
										OFFSET	1.534	-2.531	0.099
										CHANNELS	3	Yrotation	Xrotation	Zrotation
										JOINT	LeftFinger2Proximal
										{
											OFFSET	-0.000	-5.243	-0.000
											CHANNELS	3	Yrotation	Xrotation	Zrotation
											JOINT	LeftFinger2Medial
											{
												OFFSET	-0.000	-4.425	0.000
												CHANNELS	3	Yrotation	Xrotation	Zrotation
												JOINT	LeftFinger2Distal
												{
													OFFSET	-0.000	-2.723	-0.000
													CHANNELS	3	Yrotation	Xrotation	Zrotation
													End Site
													{
														OFFSET	-0.000	-2.668	-0.000
													}
												}
											}
										}
									}
									JOINT	LeftFinger3Metacarpal
									{
										OFFSET	0.521	-2.647	0.099
										CHANNELS	3	Yrotation	Xrotation	Zrotation
										JOINT	LeftFinger3Proximal
										{
											OFFSET	-0.000	-5.132	-0.000
											CHANNELS	3	Yrotation	Xrotation	Zrotation
											JOINT	LeftFinger3Medial
											{
												OFFSET	-0.000	-4.496	-0.000
												CHANNELS	3	Yrotation	Xrotation	Zrotation
												JOINT	LeftFinger3Distal
												{
													OFFSET	0.000	-2.965	0.000
													CHANNELS	3	Yrotation	Xrotation	Zrotation
													End Site
													{
														OFFSET	-0.000	-2.868	-0.000
													}
												}
											}
										}
									}
									JOINT	LeftFinger4Metacarpal
									{
										OFFSET	-0.524	-2.624	0.099
										CHANNELS	3	Yrotation	Xrotation	Zrotation
										JOINT	LeftFinger4Proximal
										{
											OFFSET	-0.000	-4.891	0.000
											CHANNELS	3	Yrotation	Xrotation	Zrotation
											JOINT	LeftFinger4Medial
											{
												OFFSET	0.000	-4.243	-0.000
												CHANNELS	3	Yrotation	Xrotation	Zrotation
												JOINT	LeftFinger4Distal
												{
													OFFSET	-0.000	-2.737	0.000
													CHANNELS	3	Yrotation	Xrotation	Zrotation
													End Site
													{
														OFFSET	-0.000	-2.664	-0.000
													}
												}
											}
										}
									}
									JOINT	LeftFinger5Metacarpal
									{
										OFFSET	-1.423	-2.380	0.098
										CHANNELS	3	Yrotation	Xrotation	Zrotation
										JOINT	LeftFinger5Proximal
										{
											OFFSET	-0.000	-4.585	0.000
											CHANNELS	3	Yrotation	Xrotation	Zrotation
											JOINT	LeftFinger5Medial
											{
												OFFSET	-0.000	-3.598	0.000
												CHANNELS	3	Yrotation	Xrotation	Zrotation
												JOINT	LeftFinger5Distal
												{
													OFFSET	0.000	-2.262	-0.000
													CHANNELS	3	Yrotation	Xrotation	Zrotation
													End Site
													{
														OFFSET	-0.000	-2.304	0.000
													}
												}
											}
										}
									}
								}
							}
						}
					}
					JOINT	Neck
					{
						OFFSET	0.000	-19.121	-0.000
						CHANNELS	3	Yrotation	Xrotation	Zrotation
						JOINT	Head
						{
							OFFSET	0.000	-9.861	0.000
							CHANNELS	3	Yrotation	Xrotation	Zrotation
							End Site
							{
								OFFSET	0.000	-14.898	0.000
							}
						}
					}
					JOINT	RightShoulder
					{
						OFFSET	6.642	-11.736	1.807
						CHANNELS	3	Yrotation	Xrotation	Zrotation
						JOINT	RightArm
						{
							OFFSET	0.000	-12.849	0.000
							CHANNELS	3	Yrotation	Xrotation	Zrotation
							JOINT	RightForeArm
							{
								OFFSET	-0.000	-24.625	0.000
								CHANNELS	3	Yrotation	Xrotation	Zrotation
								JOINT	RightHand
								{
									OFFSET	0.000	-27.116	0.000
									CHANNELS	3	Yrotation	Xrotation	Zrotation
									JOINT	RightFinger1Metacarpal
									{
										OFFSET	-2.664	-1.988	0.098
										CHANNELS	3	Yrotation	Xrotation	Zrotation
										JOINT	RightFinger1Proximal
										{
											OFFSET	-0.000	-3.769	0.000
											CHANNELS	3	Yrotation	Xrotation	Zrotation
											JOINT	RightFinger1Distal
											{
												OFFSET	-0.000	-2.861	-0.000
												CHANNELS	3	Yrotation	Xrotation	Zrotation
												End Site
												{
													OFFSET	-0.000	-3.269	-0.000
												}
											}
										}
									}
									JOINT	RightFinger2Metacarpal
									{
										OFFSET	-1.534	-2.531	0.099
										CHANNELS	3	Yrotation	Xrotation	Zrotation
										JOINT	RightFinger2Proximal
										{
											OFFSET	0.000	-5.243	-0.000
											CHANNELS	3	Yrotation	Xrotation	Zrotation
											JOINT	RightFinger2Medial
											{
												OFFSET	-0.000	-4.425	0.000
												CHANNELS	3	Yrotation	Xrotation	Zrotation
												JOINT	RightFinger2Distal
												{
													OFFSET	0.000	-2.723	-0.000
													CHANNELS	3	Yrotation	Xrotation	Zrotation
													End Site
													{
														OFFSET	0.000	-2.668	-0.000
													}
												}
											}
										}
									}
									JOINT	RightFinger3Metacarpal
									{
										OFFSET	-0.521	-2.647	0.098
										CHANNELS	3	Yrotation	Xrotation	Zrotation
										JOINT	RightFinger3Proximal
										{
											OFFSET	0.000	-5.132	0.000
											CHANNELS	3	Yrotation	Xrotation	Zrotation
											JOINT	RightFinger3Medial
											{
												OFFSET	-0.000	-4.496	-0.000
												CHANNELS	3	Yrotation	Xrotation	Zrotation
												JOINT	RightFinger3Distal
												{
													OFFSET	0.000	-2.965	0.000
													CHANNELS	3	Yrotation	Xrotation	Zrotation
													End Site
													{
														OFFSET	0.000	-2.868	-0.000
													}
												}
											}
										}
									}
									JOINT	RightFinger4Metacarpal
									{
										OFFSET	0.524	-2.624	0.099
										CHANNELS	3	Yrotation	Xrotation	Zrotation
										JOINT	RightFinger4Proximal
										{
											OFFSET	0.000	-4.891	0.000
											CHANNELS	3	Yrotation	Xrotation	Zrotation
											JOINT	RightFinger4Medial
											{
												OFFSET	0.000	-4.243	-0.000
												CHANNELS	3	Yrotation	Xrotation	Zrotation
												JOINT	RightFinger4Distal
												{
													OFFSET	-0.000	-2.737	0.000
													CHANNELS	3	Yrotation	Xrotation	Zrotation
													End Site
													{
														OFFSET	0.000	-2.664	-0.000
													}
												}
											}
										}
									}
									JOINT	RightFinger5Metacarpal
									{
										OFFSET	1.423	-2.380	0.098
										CHANNELS	3	Yrotation	Xrotation	Zrotation
										JOINT	RightFinger5Proximal
										{
											OFFSET	0.000	-4.585	0.000
											CHANNELS	3	Yrotation	Xrotation	Zrotation
											JOINT	RightFinger5Medial
											{
												OFFSET	0.000	-3.598	0.000
												CHANNELS	3	Yrotation	Xrotation	Zrotation
												JOINT	RightFinger5Distal
												{
													OFFSET	-0.000	-2.262	-0.000
													CHANNELS	3	Yrotation	Xrotation	Zrotation
													End Site
													{
														OFFSET	0.000	-2.304	0.000
													}
												}
											}
										}
									}
								}
							}
						}
					}
				}
			}
		}
	}
}
MOTION
Frames:	5
Frame Time:	0.010
-0.000	88.689	0.000	-0.000	-0.000	-0.000	-90.000	-0.000	-0.000	-0.000	-0.000	0.000	-90.000	90.000	-0.000	0.000	-0.000	-0.000	-270.000	0.000	-0.000	-0.000	-0.000	-0.000	-270.000	90.000	-0.000	0.000	-0.000	0.000	-0.000	0.000	-180.000	0.000	-0.000	0.000	0.000	-0.000	0.000	0.000	-0.000	0.000	-15.000	-0.000	-90.000	-90.000	0.000	-345.000	-0.000	-0.000	-0.000	-0.000	-0.000	-0.000	-40.893	20.705	-337.792	-355.893	339.295	-22.208	-0.000	-0.000	-0.000	-0.000	-0.000	-350.000	-0.000	0.000	-10.000	-0.000	0.000	-0.000	-0.000	0.000	-0.000	-0.000	-0.000	0.000	0.000	0.000	-0.000	-0.000	0.000	-0.000	0.000	0.000	-0.000	0.000	-0.000	-10.000	-0.000	0.000	-350.000	-0.000	-0.000	-0.000	0.000	0.000	-0.000	0.000	-0.000	-20.000	0.000	0.000	-340.000	-0.000	0.000	-0.000	0.000	0.000	0.000	0.000	-0.000	0.000	0.000	-0.000	0.000	-345.000	-0.000	-270.000	-270.000	0.000	-15.000	-0.000	-0.000	-0.000	-0.000	-0.000	-0.000	-319.107	20.705	-22.208	-4.107	339.295	-337.792	-0.000	-0.000	-0.000	0.000	-0.000	-10.000	0.000	0.000	-350.000	-0.000	0.000	-0.000	-0.000	0.000	-0.000	0.000	-0.000	-0.000	-0.000	0.000	0.000	0.000	0.000	-0.000	-0.000	-0.000	-0.000	-0.000	-0.000	-350.000	0.000	0.000	-10.000	-0.000	-0.000	-0.000	-0.000	-0.000	-0.000	-0.000	-0.000	-340.000	-0.000	0.000	-20.000	0.000	0.000	0.000	-0.000	0.000	-0.000	
-0.000	88.689	0.000	-0.000	-0.000	-0.000	-90.000	-0.000	-0.000	-0.000	-0.000	0.000	-90.000	90.000	-0.000	0.000	-0.000	-0.000	-270.000	0.000	-0.000	-0.000	-0.000	-0.000	-270.000	90.000	-0.000	0.000	-0.000	0.000	-0.000	0.000	-180.000	0.000	-0.000	0.000	0.000	-0.000	0.000	0.000	-0.000	0.000	-15.000	-0.000	-90.000	-90.000	0.000	-345.000	-0.000	-0.000	-0.000	-0.000	-0.000	-0.000	-40.893	20.705	-337.792	-355.893	339.295	-22.208	-0.000	-0.000	-0.000	-0.000	-0.000	-350.000	-0.000	0.000	-10.000	-0.000	0.000	-0.000	-0.000	0.000	-0.000	-0.000	-0.000	0.000	0.000	0.000	-0.000	-0.000	0.000	-0.000	0.000	0.000	-0.000	0.000	-0.000	-10.000	-0.000	0.000	-350.000	-0.000	-0.000	-0.000	0.000	0.000	-0.000	0.000	-0.000	-20.000	0.000	0.000	-340.000	-0.000	0.000	-0.000	0.000	0.000	0.000	0.000	-0.000	0.000	0.000	-0.000	0.000	-345.000	-0.000	-270.000	-270.000	0.000	-15.000	-0.000	-0.000	-0.000	-0.000	-0.000	-0.000	-319.107	20.705	-22.208	-4.107	339.295	-337.792	-0.000	-0.000	-0.000	0.000	-0.000	-10.000	0.000	0.000	-350.000	-0.000	0.000	-0.000	-0.000	0.000	-0.000	0.000	-0.000	-0.000	-0.000	0.000	0.000	0.000	0.000	-0.000	-0.000	-0.000	-0.000	-0.000	-0.000	-350.000	0.000	0.000	-10.000	-0.000	-0.000	-0.000	-0.000	-0.000	-0.000	-0.000	-0.000	-340.000	-0.000	0.000	-20.000	0.000	0.000	0.000	-0.000	0.000	-0.000	
13.835	88.277	-1.908	-6.183	357.016	-359.263	-82.134	1.564	-8.861	0.000	0.000	-0.049	-254.184	83.610	-174.024	-0.000	359.059	0.000	-274.739	9.011	-353.415	-0.131	0.006	-354.813	-41.354	82.158	-127.215	-0.000	2.770	-0.000	-1.519	0.132	-180.541	-358.481	359.868	-0.541	-358.476	359.867	-0.543	-0.000	-0.000	0.000	-18.378	1.168	-86.410	-77.811	291.350	-324.013	-9.453	316.607	-288.736	-4.677	356.082	-356.473	-66.476	4.295	-327.275	-8.380	325.207	-20.789	-0.000	338.800	-0.000	-0.000	0.000	-350.000	-357.369	337.029	-12.896	0.000	336.087	-0.000	-0.000	344.058	-0.000	-0.000	-0.000	0.000	-359.661	327.502	-1.163	-0.000	327.493	0.000	-0.000	338.328	-0.000	-357.274	357.452	-10.128	-358.908	326.141	-359.272	0.000	325.900	-0.000	-0.000	337.266	-0.000	-354.070	354.881	-20.590	-3.275	336.883	-349.529	-0.000	335.662	0.000	-0.000	343.775	-0.000	-7.008	349.820	-357.434	-7.008	349.820	-357.434	-350.022	358.003	-273.603	-244.132	282.299	-30.443	-353.792	354.482	-15.667	-352.594	16.254	-343.113	-275.191	19.723	-29.230	-7.955	332.928	-351.113	-0.000	341.369	-0.000	0.000	-0.000	-10.000	-2.832	334.586	-347.488	-0.000	333.618	0.000	-0.000	342.412	-0.000	0.000	-0.000	-0.000	-0.530	331.351	-357.923	0.000	331.329	-0.000	-0.000	340.886	-0.000	-2.726	357.452	-349.872	-358.241	333.879	-7.571	-0.000	333.552	0.000	-0.000	342.368	-0.000	-5.930	354.881	-339.410	-357.131	336.072	-13.480	-0.000	335.096	0.000	-0.000	343.398	-0.000	
13.842	88.188	-1.878	-6.182	357.017	-359.255	-82.155	1.552	-6.289	-0.000	-0.000	-5.242	-258.695	81.062	-178.596	-0.000	359.061	0.000	-274.721	9.035	-354.477	-0.186	0.012	-352.637	-46.755	81.370	-132.710	-0.000	2.767	0.000	-1.518	0.133	-180.543	-358.482	359.867	-0.543	-358.477	359.867	-0.544	-0.000	-0.000	0.000	-18.372	1.179	-86.413	-78.013	291.362	-323.865	-9.418	316.734	-288.708	-4.588	356.050	-356.451	-66.441	4.431	-327.258	-8.648	325.583	-20.641	-0.000	339.114	-0.000	-0.000	0.000	-350.000	-357.383	337.185	-12.916	-0.000	336.246	-0.000	-0.000	344.164	-0.000	-0.000	-0.000	0.000	-359.643	327.584	-1.227	-0.000	327.574	0.000	-0.000	338.383	-0.000	-357.274	357.452	-10.128	-358.894	326.255	-359.336	0.000	326.007	-0.000	-0.000	337.338	-0.000	-354.070	354.881	-20.590	-3.254	336.930	-349.584	-0.000	335.727	0.000	-0.000	343.818	-0.000	-6.999	349.825	-357.444	-6.999	349.825	-357.444	-350.015	358.001	-273.614	-244.223	282.288	-30.348	-353.793	354.481	-15.667	-352.601	16.244	-343.120	-275.191	19.722	-29.230	-7.956	332.926	-351.110	-0.000	341.368	-0.000	0.000	-0.000	-10.000	-2.787	334.610	-347.675	-0.000	333.672	0.000	-0.000	342.448	-0.000	0.000	-0.000	-0.000	-0.476	331.362	-358.135	-0.000	331.345	0.000	-0.000	340.897	-0.000	-2.726	357.452	-349.872	-358.188	333.851	-7.790	0.000	333.504	-0.000	-0.000	342.336	-0.000	-5.930	354.881	-339.410	-357.092	336.093	-13.673	-0.000	335.087	0.000	-0.000	343.391	-0.000	
13.846	88.191	-1.869	-6.183	357.021	-359.251	-82.167	1.546	-6.371	-0.000	0.000	-5.085	-258.622	81.126	-178.532	-0.000	359.055	0.000	-274.728	9.042	-354.427	-0.184	0.012	-352.735	-46.528	81.399	-132.486	-0.000	2.771	-0.000	-1.518	0.135	-180.541	-358.481	359.865	-0.541	-358.477	359.864	-0.543	-0.000	-0.000	0.000	-18.365	1.198	-86.422	-78.386	291.372	-323.609	-9.366	316.892	-288.638	-4.315	356.030	-356.469	-66.320	4.914	-327.291	-9.530	326.893	-20.441	-0.000	340.229	-0.000	-0.000	0.000	-350.000	-357.388	337.699	-13.194	-0.000	336.707	0.000	-0.000	344.471	-0.000	-0.000	-0.000	0.000	-359.580	328.041	-1.467	-0.000	328.026	0.000	-0.000	338.684	-0.000	-357.274	357.452	-10.128	-358.836	326.967	-359.679	0.000	326.640	-0.000	-0.000	337.760	-0.000	-354.070	354.881	-20.590	-3.168	337.037	-349.855	-0.000	335.966	-0.000	-0.000	343.977	-0.000	-6.993	349.823	-357.449	-6.993	349.823	-357.449	-350.004	358.008	-273.624	-244.341	282.281	-30.199	-353.785	354.478	-15.701	-352.604	16.246	-343.136	-275.190	19.721	-29.227	-7.957	332.921	-351.102	-0.000	341.364	-0.000	0.000	-0.000	-10.000	-2.744	334.629	-347.855	-0.000	333.721	0.000	-0.000	342.480	-0.000	0.000	-0.000	-0.000	-0.369	331.364	-358.554	-0.000	331.355	0.000	-0.000	340.903	-0.000	-2.726	357.452	-349.872	-358.186	333.842	-7.798	-0.000	333.495	0.000	-0.000	342.330	-0.000	-5.930	354.881	-339.410	-357.021	336.178	-14.055	-0.000	335.111	0.000	-0.000	343.407	-0.000	
